<svg xmlns:dc="http://purl.org/dc/elements/1.1/" xmlns:cc="http://creativecommons.org/ns#" xmlns:rdf="http://www.w3.org/1999/02/22-rdf-syntax-ns#" xmlns:svg="http://www.w3.org/2000/svg" xmlns="http://www.w3.org/2000/svg" xmlns:sodipodi="http://sodipodi.sourceforge.net/DTD/sodipodi-0.dtd" xmlns:inkscape="http://www.inkscape.org/namespaces/inkscape" version="1.1" x="0px" y="0px" viewBox="0 0 100 125"><g transform="translate(0,-952.36218)"><path style="font-size:medium;font-style:normal;font-variant:normal;font-weight:normal;font-stretch:normal;text-indent:0;text-align:start;text-decoration:none;line-height:normal;letter-spacing:normal;word-spacing:normal;text-transform:none;direction:ltr;block-progression:tb;writing-mode:lr-tb;text-anchor:start;baseline-shift:baseline;opacity:1;color:#000000;fill:#000000;fill-opacity:1;stroke:none;stroke-width:11.91017723000000000;marker:none;visibility:visible;display:inline;overflow:visible;enable-background:accumulate;font-family:Sans;-inkscape-font-specification:Sans" d="M 16.53125 17 C 11.322482 17 7 21.13114 7 26.28125 L 7 61.6875 C 7 66.8376 11.312488 71 16.53125 71 L 63.3125 71 C 64.703472 77.838181 70.761525 83 78 83 C 86.260583 83 93 76.2606 93 68 C 93 61.501263 88.803754 55.983272 83 53.90625 L 83 26.28125 C 83 21.12083 78.646269 17 73.4375 17 L 16.53125 17 z M 16.53125 21 L 73.4375 21 C 76.577779 21 79 23.35539 79 26.28125 L 79 46.75 L 71.28125 40.4375 A 2.0002 2.0002 0 0 0 68.71875 40.4375 L 58 49.375 L 36.28125 31.4375 A 2.0002 2.0002 0 0 0 34.78125 31 A 2.0002 2.0002 0 0 0 33.875 31.34375 L 11 47.1875 L 11 26.28125 C 11 23.34508 13.390972 21 16.53125 21 z M 58 23 C 53.605412 23 50 26.60541 50 31 C 50 35.39458 53.605404 39 58 39 C 62.39459 39 66 35.39458 66 31 C 66 26.6054 62.394582 23 58 23 z M 58 27 C 60.232828 27 62 28.76716 62 31 C 62 33.23282 60.23282 35 58 35 C 55.767168 35 54 33.23282 54 31 C 54 28.76715 55.76716 27 58 27 z M 34.875 35.5 L 56.71875 53.53125 A 2.0002 2.0002 0 0 0 59.28125 53.53125 L 70 44.59375 L 79 51.9375 L 79 53.03125 C 78.668358 53.00914 78.337035 53 78 53 C 70.076453 53 63.550248 59.203307 63.03125 67 L 16.53125 67 C 13.400966 67 11 64.6236 11 61.6875 L 11 52.03125 L 34.875 35.5 z M 78 57 C 84.098821 57 89 61.9012 89 68 C 89 74.0989 84.098821 79 78 79 C 71.901179 79 67 74.0989 67 68 C 67 61.9012 71.901179 57 78 57 z M 76.78125 60.96875 A 2.0002 2.0002 0 0 0 75 63 L 75 69 A 2.0002 2.0002 0 0 0 77 71 L 83 71 A 2.0002 2.0002 0 1 0 83 67 L 79 67 L 79 63 A 2.0002 2.0002 0 0 0 76.78125 60.96875 z " transform="translate(0,952.36218)"/></g><text x="0" y="115" fill="#000000" font-size="5px" font-weight="bold" font-family="'Helvetica Neue', Helvetica, Arial-Unicode, Arial, Sans-serif">Created by artworkbean</text><text x="0" y="120" fill="#000000" font-size="5px" font-weight="bold" font-family="'Helvetica Neue', Helvetica, Arial-Unicode, Arial, Sans-serif">from the Noun Project</text></svg>