<svg height="512pt" viewBox="-60 0 511 512" width="512pt" xmlns="http://www.w3.org/2000/svg"><path d="m200.734375 0h-172.746094c-15.15625 0-27.488281 12.332031-27.488281 27.488281v457.023438c0 15.15625 12.332031 27.488281 27.488281 27.488281h335.507813c15.15625 0 27.488281-12.332031 27.488281-27.488281v-196.964844c0-4.144531-3.355469-7.5-7.5-7.5s-7.5 3.355469-7.5 7.5v196.964844c0 6.886719-5.601563 12.488281-12.488281 12.488281h-335.507813c-6.886719 0-12.488281-5.601562-12.488281-12.488281v-457.023438c0-6.886719 5.601562-12.488281 12.488281-12.488281h172.746094c34.449219 0 63.011719 25.671875 67.5625 58.890625h-139.671875c-4.140625 0-7.5 3.355469-7.5 7.5 0 4.140625 3.359375 7.5 7.5 7.5h140.308594c0 8.289063-.046875 9.136719.105468 10.773437-5.179687-1.050781-10.628906-.046874-15.214843 2.980469l-27.609375 18.226563c-2.765625-.957032-5.601563-1.792969-8.492188-2.5-4.027344-.980469-8.082031 1.488281-9.066406 5.511718-.976562 4.023438 1.488281 8.082032 5.515625 9.0625 24.554687 5.988282 43.890625 23.164063 53.152344 45.355469.128906.417969.292969.820313.488281 1.207031 4.25 10.679688 5.960938 21.925782 5.378906 32.910157h-17.976562c-4.144532 0-7.5 3.359375-7.5 7.5 0 4.144531 3.355468 7.5 7.5 7.5h15.699218c-1.359374 5.332031-3.269531 10.445312-5.671874 15.273437l-10.277344-5.933594c-3.585938-2.070312-8.175782-.84375-10.246094 2.746094-2.070312 3.585938-.839844 8.171875 2.746094 10.242188l9.828125 5.679687c-14.1875 18.480469-36.503907 30.417969-61.550781 30.417969-25.050782 0-47.363282-11.9375-61.550782-30.417969l9.828125-5.679687c3.585938-2.070313 4.816407-6.65625 2.746094-10.242188-2.074219-3.589844-6.660156-4.816406-10.246094-2.746094l-10.277343 5.933594c-2.402344-4.828125-4.3125-9.941406-5.671876-15.273437h15.699219c4.140625 0 7.5-3.355469 7.5-7.5 0-4.140625-3.359375-7.5-7.5-7.5h-17.976562c-.597657-11.304688 1.246093-22.542969 5.417969-32.984375.164062-.335938.308593-.683594.421874-1.042969 7.941407-19.070313 23.300782-34.40625 42.851563-42.160156.066406-.023438.128906-.050781.195313-.074219 4.785156-1.886719 9.824218-3.316406 15.0625-4.234375 4.078124-.71875 6.808593-4.605469 6.089843-8.683594-.714843-4.082031-4.601562-6.804687-8.683593-6.089843-4.957032.867187-9.761719 2.121093-14.382813 3.722656l-27.605469-18.226563c-6.46875-4.269531-14.65625-4.519531-21.371094-.640625-6.710937 3.875-10.589843 11.089844-10.125 18.824219l3.238282 53.976563c-4.769532 12.335937-6.679688 25.164062-6.128906 37.613281h-6.390626c-4.144531 0-7.5 3.355469-7.5 7.5s3.355469 7.5 7.5 7.5h8.289063c1.691406 8.023437 4.429687 15.667969 8.058594 22.785156l-17.492188 10.101563c-3.585937 2.070312-4.816406 6.65625-2.746093 10.242187 2.082031 3.605469 6.675781 4.808594 10.246093 2.746094l17.871094-10.320313c3.238281 4.40625 6.851563 8.511719 10.796875 12.277344 0 19.808594-.058594 19.347656.160156 21.207031-12.683594 10.125-22.722656 23.027344-29.375 37.742188h-25.421875c-2.304687 0-4.183593-1.875-4.183593-4.183594v-236.941406c0-2.308594 1.878906-4.183594 4.183593-4.183594h16.355469c4.144531 0 7.5-3.359375 7.5-7.5 0-4.144531-3.355469-7.5-7.5-7.5h-16.355469c-10.578125 0-19.183593 8.605469-19.183593 19.183594v236.941406c0 10.578125 8.605468 19.183594 19.183593 19.183594h236.941407c10.578124 0 19.1875-8.605469 19.1875-19.183594v-202.972656c24.949218 10.144531 42.585937 34.65625 42.585937 63.207031v62.296875c0 4.140625 3.355469 7.5 7.5 7.5s7.5-3.359375 7.5-7.5v-62.308594c-.007813-104.925781-85.117187-190.23437475-190.25-190.238281zm-79.597656 119.929688c-.175781-2.96875 1.796875-4.441407 2.65625-4.9375.859375-.496094 3.121093-1.46875 5.601562.167968l19.796875 13.070313c-10.15625 5.886719-19.023437 13.628906-26.191406 22.730469zm121.160156 8.300781 19.792969-13.070313c2.480468-1.636718 4.742187-.660156 5.601562-.167968.859375.496093 2.832032 1.96875 2.65625 4.9375l-1.863281 31.003906c-7.152344-9.078125-16.011719-16.8125-26.1875-22.703125zm-46.554687 205.90625c-8.421876 0-14.027344-8.699219-10.636719-16.332031.035156-.074219.070312-.148438.101562-.226563 1.859375-3.957031 5.882813-6.703125 10.535157-6.703125 4.652343 0 8.675781 2.746094 10.53125 6.703125.035156.078125.070312.152344.105468.226563 3.386719 7.632812-2.21875 16.332031-10.636718 16.332031zm26.578124-13.285157c7.078126-1.183593 14.089844-2.84375 20.925782-4.953124 3.632812-1.121094 6.820312-3.058594 9.394531-5.578126 7.859375 6.78125 14.410156 14.855469 19.386719 23.878907h-52.363282c2.027344-4.128907 2.941407-8.707031 2.65625-13.347657zm22.253907-27.117187c0 .921875-.148438 1.816406-.433594 2.65625-.105469.234375-.199219.472656-.277344.714844-.9375 2.097656-2.734375 3.746093-5.042969 4.460937-7.109374 2.195313-14.425781 3.847656-21.804687 4.9375-2.011719-2.667968-4.515625-4.949218-7.371094-6.703125 12.660157-1.914062 24.488281-6.40625 34.929688-12.914062zm-62.734375 6.066406c-2.855469 1.753907-5.359375 4.035157-7.371094 6.703125-7.378906-1.089844-14.695312-2.742187-21.804688-4.9375-2.308593-.714844-4.105468-2.363281-5.042968-4.460937-.082032-.242188-.171875-.480469-.277344-.714844-.285156-.839844-.4375-1.734375-.4375-2.65625v-6.847656c10.445312 6.511719 22.273438 11 34.933594 12.914062zm-42.996094 10.519531c2.574219 2.519532 5.761719 4.457032 9.394531 5.578126 6.835938 2.109374 13.847657 3.769531 20.921875 4.953124-.28125 4.632813.625 9.210938 2.660156 13.347657h-52.367187c4.980469-9.023438 11.53125-17.097657 19.390625-23.878907zm179.554688 19.695313c0 2.308594-1.878907 4.1875-4.1875 4.1875h-25.421876c-6.648437-14.71875-16.6875-27.617187-29.371093-37.742187.222656-1.933594.15625-1.167969.15625-21.210938 3.949219-3.761719 7.5625-7.871094 10.796875-12.273438l17.875 10.316407c3.5625 2.058593 8.160156.867187 10.242187-2.742188 2.074219-3.589843.84375-8.175781-2.742187-10.246093l-17.492188-10.101563c3.628906-7.113281 6.363282-14.757813 8.058594-22.785156h8.289062c4.144532 0 7.5-3.355469 7.5-7.5 0-4.140625-3.355468-7.5-7.5-7.5h-6.390624c.566406-12.886719-1.511719-25.6875-6.128907-37.632813 3.988281-66.457031 3.140625-52.015625 3.246094-54.160156 2.589844.925781 5.378906 1.429688 8.28125 1.429688h14.175781c3.609375 0 7.152344.28125 10.613282.824218zm-10.613282-222.960937h-14.175781c-5.335937 0-9.679687-4.34375-9.679687-9.679688v-14.179688c0-22.417968-8.914063-42.792968-23.382813-57.769531 48.492187 17.5625 87.417969 56.433594 105.011719 105.007813-14.976563-14.46875-35.351563-23.378906-57.773438-23.378906zm0 0"/><path d="m207.515625 237.214844c9.132813-3.140625 14.796875-9.742188 14.796875-17.265625 0-10.746094-11.671875-19.164063-26.570312-19.164063-14.898438 0-26.570313 8.417969-26.570313 19.164063 0 7.523437 5.664063 14.125 14.800781 17.269531 1.164063 1.578125 2.621094 2.886719 4.269532 3.875v7.125c0 6.226562-5.203126 11.203125-11.414063 10.945312-4.398437-.179687-6.144531-3.445312-6.6875-4.839843-.449219-1.148438-1.648437-5.164063 1.753906-8.566407 2.929688-2.929687 2.929688-7.679687 0-10.609374-2.929687-2.925782-7.675781-2.925782-10.605469 0-14.03125 14.03125-4.785156 38.207031 14.945313 39.003906 7.445313.292968 14.433594-2.5625 19.507813-7.703125 4.953124 5.011719 11.863281 7.992187 19.523437 7.703125 19.710937-.796875 28.964844-24.96875 14.933594-39.003906-2.929688-2.925782-7.675781-2.925782-10.605469 0-2.929688 2.929687-2.929688 7.679687 0 10.609374 3.402344 3.402344 2.203125 7.417969 1.753906 8.566407-.542968 1.394531-2.289062 4.660156-6.671875 4.839843-6.378906.238282-11.433593-4.839843-11.433593-10.945312v-7.128906c1.640624-.984375 3.101562-2.292969 4.273437-3.875zm-23.351563-17.222656c.242188-1.015626 4.183594-4.207032 11.578126-4.207032 7.292968 0 11.226562 3.105469 11.5625 4.164063-.171876.496093-1.523438 2.023437-4.773438 3.117187-2.660156.894532-5 2.5625-6.789062 4.847656-1.789063-2.28125-4.128907-3.953124-6.785157-4.847656-3.347656-1.125-4.683593-2.710937-4.792969-3.074218zm0 0"/><path d="m138.21875 419.199219h6.230469c3.832031 0 6.949219 3.117187 6.949219 6.949219 0 4.144531 3.359374 7.5 7.5 7.5 4.144531 0 7.5-3.355469 7.5-7.5 0-12.101563-9.84375-21.949219-21.949219-21.949219h-6.230469c-12.105469 0-21.949219 9.847656-21.949219 21.949219 0 12.105468 9.84375 21.953124 21.949219 21.953124h6.230469c3.832031 0 6.949219 3.117188 6.949219 6.949219s-3.117188 6.949219-6.949219 6.949219h-6.230469c-3.832031 0-6.949219-3.117188-6.949219-6.949219 0-4.144531-3.359375-7.5-7.5-7.5-4.144531 0-7.5 3.355469-7.5 7.5 0 12.101563 9.84375 21.949219 21.949219 21.949219h6.230469c12.105469 0 21.949219-9.847656 21.949219-21.949219 0-12.105469-9.84375-21.949219-21.949219-21.949219h-6.230469c-3.832031 0-6.949219-3.121093-6.949219-6.953124 0-3.832032 3.117188-6.949219 6.949219-6.949219zm0 0"/><path d="m193.183594 419.199219h6.230468c3.832032 0 6.949219 3.117187 6.949219 6.949219 0 4.144531 3.359375 7.5 7.5 7.5 4.144531 0 7.5-3.355469 7.5-7.5 0-12.101563-9.84375-21.949219-21.949219-21.949219h-6.230468c-12.105469 0-21.949219 9.847656-21.949219 21.949219 0 12.105468 9.84375 21.953124 21.949219 21.953124h6.230468c3.832032 0 6.949219 3.117188 6.949219 6.949219s-3.117187 6.949219-6.949219 6.949219h-6.230468c-3.832032 0-6.949219-3.117188-6.949219-6.949219 0-4.144531-3.359375-7.5-7.5-7.5-4.144531 0-7.5 3.355469-7.5 7.5 0 12.101563 9.84375 21.949219 21.949219 21.949219h6.230468c12.105469 0 21.949219-9.847656 21.949219-21.949219 0-12.105469-9.84375-21.949219-21.949219-21.949219h-6.230468c-3.832032 0-6.949219-3.121093-6.949219-6.953124 0-3.832032 3.117187-6.949219 6.949219-6.949219zm0 0"/><path d="m322.832031 419.199219h6.230469c3.832031 0 6.953125 3.117187 6.953125 6.949219 0 4.144531 3.355469 7.5 7.5 7.5 4.140625 0 7.5-3.355469 7.5-7.5 0-12.101563-9.847656-21.949219-21.953125-21.949219h-6.230469c-12.105469 0-21.949219 9.847656-21.949219 21.949219v28.902343c0 12.101563 9.847657 21.949219 21.949219 21.949219h6.230469c12.105469 0 21.953125-9.847656 21.953125-21.949219v-5.863281c0-6.113281-4.976563-11.085938-11.085937-11.085938h-13.980469c-4.144531 0-7.5 3.355469-7.5 7.5 0 4.140626 3.355469 7.5 7.5 7.5h10.066406v1.949219c0 3.832031-3.121094 6.949219-6.953125 6.949219h-6.230469c-3.832031 0-6.949219-3.117188-6.949219-6.949219v-28.902343c0-3.832032 3.117188-6.949219 6.949219-6.949219zm0 0"/><path d="m83.101562 477c4.144532 0 7.5-3.355469 7.5-7.5v-57.800781c0-3.359375-2.238281-6.3125-5.476562-7.21875-3.238281-.910157-6.6875.453125-8.433594 3.324219l-11.15625 18.355468-11.15625-18.355468c-1.75-2.875-5.195312-4.234376-8.433594-3.324219-3.238281.90625-5.476562 3.855469-5.476562 7.21875v57.800781c0 4.144531 3.355469 7.5 7.5 7.5 4.140625 0 7.5-3.355469 7.5-7.5v-31.019531l3.65625 6.015625c2.914062 4.796875 9.898438 4.800781 12.816406 0l3.660156-6.015625v31.019531c0 4.144531 3.359376 7.5 7.5 7.5zm0 0"/><path d="m95.433594 411.699219v57.800781c0 4.144531 3.359375 7.5 7.5 7.5 4.144531 0 7.5-3.355469 7.5-7.5v-57.800781c0-4.140625-3.355469-7.5-7.5-7.5-4.140625 0-7.5 3.359375-7.5 7.5zm0 0"/><path d="m226.199219 411.699219v57.800781c0 4.144531 3.355469 7.5 7.5 7.5s7.5-3.355469 7.5-7.5v-57.800781c0-4.140625-3.355469-7.5-7.5-7.5s-7.5 3.359375-7.5 7.5zm0 0"/><path d="m281.164062 411.699219v31.023437l-21.222656-34.917968c-1.75-2.871094-5.195312-4.234376-8.433594-3.324219-3.238281.90625-5.476562 3.859375-5.476562 7.222656v57.796875c0 4.144531 3.355469 7.5 7.5 7.5s7.5-3.355469 7.5-7.5v-31.019531l21.222656 34.914062c1.386719 2.277344 3.839844 3.605469 6.410156 3.605469 4.132813 0 7.5-3.351562 7.5-7.5v-57.800781c0-4.140625-3.355468-7.5-7.5-7.5-4.144531 0-7.5 3.359375-7.5 7.5zm0 0"/><path d="m343.515625 369.199219h-295.546875c-4.140625 0-7.5 3.359375-7.5 7.5 0 4.144531 3.359375 7.5 7.5 7.5h295.546875c4.140625 0 7.5-3.355469 7.5-7.5 0-4.140625-3.359375-7.5-7.5-7.5zm0 0"/></svg>