<svg height="512pt" viewBox="-68 0 511 512" width="512pt" xmlns="http://www.w3.org/2000/svg"><path d="m375.984375 182.738281c-.003906-48.464843-19.257813-94.941406-53.527344-129.210937-34.269531-34.273438-80.75-53.527344-129.21875-53.527344h-.003906-172.746094c-11.039062 0-19.988281 8.949219-19.988281 19.988281v472.023438c0 11.039062 8.949219 19.988281 19.988281 19.988281h335.507813c11.039062 0 19.988281-8.949219 19.988281-19.988281v-309.261719c0-.003906 0-.007812 0-.011719zm0 0" fill="#eceff1"/><path d="m318.398438 93.074219c0-6.453125-5.234376-11.683594-11.6875-11.683594h-236.9375c-6.453126 0-11.6875 5.230469-11.6875 11.683594v236.941406c0 6.453125 5.234374 11.683594 11.6875 11.683594h236.9375c6.453124 0 11.6875-5.230469 11.6875-11.683594 0-26.003906 0 61.40625 0-236.941406zm0 0" fill="#e57373"/><path d="m318.398438 93.074219c0-6.453125-5.234376-11.683594-11.6875-11.683594h-236.9375c-6.453126 0-11.6875 5.230469-11.6875 11.683594v236.941406c0 6.453125 5.234374 11.683594 11.6875 11.683594h236.9375c6.453124 0 11.6875-5.230469 11.6875-11.683594 0-26.003906 0 61.40625 0-236.941406zm0 0" fill="#e57373"/><path d="m69.773438 341.699219h236.9375c6.453124 0 11.6875-5.230469 11.6875-11.683594 0-26.003906 0 61.40625 0-236.941406 0-6.453125-5.234376-11.683594-11.6875-11.683594h-28.3125v145.253906c0 52.5-42.558594 95.054688-95.058594 95.054688h-125.253906v8.316406c0 6.453125 5.230468 11.683594 11.6875 11.683594zm0 0" fill="#f44336"/><path d="m273.300781 208.285156c0 46.976563-38.082031 85.058594-85.058593 85.058594-46.976563 0-85.058594-38.082031-85.058594-85.058594 0-46.976562 38.082031-85.058594 85.058594-85.058594 46.976562 0 85.058593 38.082032 85.058593 85.058594zm0 0" fill="#ffb74d"/><path d="m204.910156 124.867188c17.417969 15.578124 28.390625 38.210937 28.390625 63.417968 0 46.976563-38.082031 85.058594-85.058593 85.058594-5.707032 0-11.277344-.570312-16.671876-1.644531 15.046876 13.453125 34.898438 21.644531 56.671876 21.644531 46.976562 0 85.058593-38.082031 85.058593-85.058594 0-41.273437-29.394531-75.667968-68.390625-83.417968zm0 0" fill="#ff9800"/><path d="m284.488281 274.300781c-1.269531 0-2.5625-.324219-3.742187-1.007812l-40.78125-23.546875c-3.585938-2.070313-4.816406-6.65625-2.746094-10.242188 2.070312-3.589844 6.660156-4.816406 10.246094-2.746094l40.78125 23.546876c3.585937 2.070312 4.816406 6.65625 2.746094 10.242187-1.390626 2.40625-3.910157 3.753906-6.503907 3.753906zm10.113281-54.382812c0-4.144531-3.355468-7.5-7.5-7.5h-39.386718c-4.144532 0-7.5 3.355469-7.5 7.5s3.355468 7.5 7.5 7.5h39.386718c4.144532 0 7.5-3.355469 7.5-7.5zm0 0" fill="#eceff1"/><path d="m287.101562 227.417969c4.144532 0 7.5-3.355469 7.5-7.5s-3.355468-7.5-7.5-7.5h-8.703124v14.226562c0 .257813-.007813.515625-.011719.773438zm0 0" fill="#cfd8dc"/><path d="m284.488281 274.300781c2.59375 0 5.113281-1.347656 6.503907-3.753906 2.070312-3.585937.839843-8.171875-2.746094-10.242187l-13.421875-7.75c-1.394531 4.925781-3.179688 9.6875-5.3125 14.253906l11.234375 6.484375c1.179687.683593 2.472656 1.007812 3.742187 1.007812zm0 0" fill="#cfd8dc"/><path d="m91.996094 274.300781c-2.59375 0-5.113282-1.347656-6.503906-3.753906-2.070313-3.585937-.839844-8.171875 2.746093-10.242187l40.78125-23.546876c3.585938-2.070312 8.171875-.84375 10.246094 2.746094 2.070313 3.585938.839844 8.171875-2.746094 10.242188l-40.78125 23.546875c-1.179687.683593-2.472656 1.007812-3.742187 1.007812zm0 0" fill="#eceff1"/><path d="m128.769531 227.417969h-39.390625c-4.140625 0-7.5-3.355469-7.5-7.5s3.359375-7.5 7.5-7.5h39.390625c4.140625 0 7.5 3.355469 7.5 7.5s-3.359375 7.5-7.5 7.5zm0 0" fill="#eceff1"/><path d="m222.699219 235.148438c-2.929688-2.925782-7.679688-2.925782-10.609375 0-2.929688 2.929687-2.929688 7.679687 0 10.609374 3.40625 3.402344 2.207031 7.417969 1.757812 8.566407-.546875 1.394531-2.289062 4.660156-6.675781 4.839843-.15625.007813-.3125.011719-.472656.011719-6.042969 0-10.957031-4.917969-10.957031-10.957031v-24.480469c0-4.140625-3.355469-7.5-7.5-7.5-4.144532 0-7.5 3.359375-7.5 7.5v24.480469c0 6.039062-4.917969 10.957031-10.957032 10.957031-.160156 0-.316406-.003906-.457031-.011719-4.398437-.179687-6.144531-3.445312-6.6875-4.839843-.449219-1.148438-1.652344-5.164063 1.753906-8.566407 2.929688-2.929687 2.929688-7.679687 0-10.609374-2.929687-2.925782-7.679687-2.925782-10.609375 0-6.535156 6.539062-8.5 15.980468-5.117187 24.632812 3.320312 8.5 11.003906 14.003906 20.066406 14.371094.351563.015625.699219.023437 1.050781.023437 7.214844 0 13.75-2.960937 18.457032-7.730469 4.710937 4.769532 11.242187 7.730469 18.457031 7.730469.355469 0 .703125-.007812 1.066406-.023437 9.050781-.367188 16.730469-5.871094 20.050781-14.371094 3.382813-8.652344 1.417969-18.09375-5.117187-24.632812zm0 0" fill="#ff9800"/><path d="m206.699219 274.175781c.351562 0 .703125-.007812 1.066406-.023437 9.046875-.367188 16.730469-5.871094 20.050781-14.371094 3.382813-8.652344 1.417969-18.09375-5.117187-24.632812-.722657-.71875-1.554688-1.257813-2.4375-1.625-2.589844 4.109374-5.507813 7.992187-8.742188 11.585937.175781.226563.367188.441406.570313.648437 3.40625 3.402344 2.207031 7.417969 1.757812 8.566407-.546875 1.394531-2.289062 4.660156-6.675781 4.839843-.15625.007813-.3125.011719-.472656.011719-2.84375 0-5.425781-1.097656-7.375-2.878906-11.050781 8.3125-24.1875 13.988281-38.488281 16.113281 2.441406 1.027344 5.105468 1.628906 7.898437 1.742188.347656.015625.699219.023437 1.050781.023437 7.214844 0 13.746094-2.960937 18.457032-7.730469 4.707031 4.769532 11.242187 7.730469 18.457031 7.730469zm0 0" fill="#f57c00"/><path d="m266.988281 176.089844 3.347657-55.710938c.632812-10.554687-11.054688-17.300781-19.878907-11.476562l-30.78125 20.324218c21.4375 8.53125 38.582031 25.527344 47.3125 46.863282zm0 0" fill="#ff9800"/><path d="m109.492188 176.089844-3.34375-55.710938c-.632813-10.554687 11.054687-17.300781 19.878906-11.476562l30.78125 20.324218c-21.4375 8.53125-38.582032 25.527344-47.316406 46.863282zm0 0" fill="#ffb74d"/><path d="m243.484375 299.46875c-1.707031 4.347656-5.296875 7.828125-9.953125 9.265625-9.136719 2.820313-18.472656 4.765625-27.882812 5.835937-3.015626-6.601562-9.671876-11.191406-17.40625-11.191406-7.734376 0-14.390626 4.589844-17.40625 11.191406-9.410157-1.074218-18.746094-3.015624-27.886719-5.835937-4.652344-1.4375-8.242188-4.917969-9.949219-9.265625-14.636719 10.554688-26.144531 25.179688-32.832031 42.230469h176.148437c-6.6875-17.050781-18.195312-31.679688-32.832031-42.230469zm0 0" fill="#ffb74d"/><path d="m276.316406 341.699219h-176.148437c2.796875-7.132813 6.449219-13.835938 10.808593-20h72.363282c16.53125 0 32.074218-4.21875 45.613281-11.640625 1.53125-.421875 3.058594-.855469 4.578125-1.328125 4.199219-1.292969 7.519531-4.257813 9.382812-8.015625.359376-.289063.71875-.578125 1.070313-.871094 14.398437 10.523438 25.722656 25 32.332031 41.855469zm0 0" fill="#ff9800"/><path d="m207.3125 219.949219c0-6.441407-8.539062-11.667969-19.070312-11.667969s-19.070313 5.226562-19.070313 11.667969c0 4.40625 3.996094 8.242187 9.894531 10.226562 1.390625.46875 2.570313 1.394531 3.4375 2.582031 1.292969 1.765626 3.378906 2.914063 5.738282 2.914063 2.359374 0 4.445312-1.148437 5.738281-2.914063.867187-1.1875 2.046875-2.113281 3.4375-2.582031 5.898437-1.984375 9.894531-5.820312 9.894531-10.226562zm0 0" fill="#e57373"/><path d="m207.371094 322.507812c0 10.566407-8.5625 19.128907-19.128906 19.128907-10.566407 0-19.132813-8.5625-19.132813-19.128907 0-10.566406 8.566406-19.132812 19.132813-19.132812 10.566406 0 19.128906 8.566406 19.128906 19.132812zm0 0" fill="#fff176"/><path d="m188.242188 341.636719c10.566406 0 19.128906-8.5625 19.128906-19.128907 0-1.292968-.128906-2.558593-.375-3.78125-7.5625 1.9375-15.488282 2.972657-23.65625 2.972657h-14.1875c-.011719.269531-.042969.535156-.042969.808593 0 10.5625 8.566406 19.128907 19.132813 19.128907zm0 0" fill="#ffeb3b"/><path d="m188.242188 293.34375c-21.609376 0-41.332032-8.0625-56.335938-21.335938v21.726563c0 6.878906 4.472656 12.96875 11.042969 15 9.140625 2.820313 18.476562 4.765625 27.886719 5.835937 3.015624-6.601562 9.671874-11.191406 17.40625-11.191406 7.734374 0 14.390624 4.589844 17.40625 11.191406 9.410156-1.074218 18.746093-3.015624 27.882812-5.835937 6.574219-2.03125 11.042969-8.121094 11.042969-15v-21.726563c-15.003907 13.273438-34.722657 21.335938-56.332031 21.335938zm0 0" fill="#64b5f6"/><path d="m242.945312 300.6875c-4.363281 3.515625-9.042968 6.660156-13.992187 9.371094 1.53125-.421875 3.058594-.855469 4.582031-1.328125 4.207032-1.296875 7.546875-4.269531 9.410156-8.042969zm0 0" fill="#2196f3"/><path d="m375.984375 182.738281c-.003906-48.464843-19.257813-94.941406-53.527344-129.210937-19.402343-19.40625-42.722656-33.992188-68.101562-42.996094 10.035156 6.664062 19.457031 14.351562 28.101562 22.996094 34.269531 34.269531 53.523438 80.746094 53.527344 129.210937v.011719 183.703125c0 80.382813-65.164063 145.546875-145.546875 145.546875h-189.9375v.011719c0 11.039062 8.949219 19.988281 19.988281 19.988281h335.507813c11.039062 0 19.988281-8.949219 19.988281-19.988281v-309.261719c0-.003906 0-.007812 0-.011719zm0 0" fill="#b0bec5"/><path d="m136.949219 477h-6.230469c-12.105469 0-21.949219-9.847656-21.949219-21.949219 0-4.144531 3.355469-7.5 7.5-7.5 4.140625 0 7.5 3.355469 7.5 7.5 0 3.832031 3.117188 6.949219 6.949219 6.949219h6.230469c3.832031 0 6.949219-3.117188 6.949219-6.949219s-3.117188-6.949219-6.949219-6.949219h-6.230469c-12.105469 0-21.949219-9.847656-21.949219-21.949218 0-12.105469 9.84375-21.949219 21.949219-21.949219h6.230469c12.105469 0 21.949219 9.847656 21.949219 21.949219 0 4.140625-3.355469 7.5-7.5 7.5-4.140626 0-7.5-3.359375-7.5-7.5 0-3.832032-3.117188-6.949219-6.949219-6.949219h-6.230469c-3.832031 0-6.949219 3.117187-6.949219 6.949219 0 3.832031 3.117188 6.949218 6.949219 6.949218h6.230469c12.105469 0 21.949219 9.847657 21.949219 21.949219 0 12.101563-9.84375 21.949219-21.949219 21.949219zm76.917969-21.949219c0-12.105469-9.847657-21.949219-21.953126-21.949219h-6.230468c-3.832032 0-6.949219-3.117187-6.949219-6.949218 0-3.832032 3.117187-6.949219 6.949219-6.949219h6.230468c3.832032 0 6.953126 3.117187 6.953126 6.949219 0 4.140625 3.355468 7.5 7.5 7.5 4.140624 0 7.5-3.359375 7.5-7.5 0-12.105469-9.847657-21.949219-21.953126-21.949219h-6.230468c-12.105469 0-21.949219 9.847656-21.949219 21.949219 0 12.101562 9.847656 21.949218 21.949219 21.949218h6.230468c3.832032 0 6.953126 3.117188 6.953126 6.949219s-3.121094 6.949219-6.953126 6.949219h-6.230468c-3.832032 0-6.949219-3.117188-6.949219-6.949219 0-4.144531-3.355469-7.5-7.5-7.5s-7.5 3.355469-7.5 7.5c0 12.101563 9.847656 21.949219 21.949219 21.949219h6.230468c12.105469 0 21.953126-9.847656 21.953126-21.949219zm129.648437 0v-5.863281c0-6.113281-4.976563-11.085938-11.085937-11.085938h-13.980469c-4.144531 0-7.5 3.355469-7.5 7.5 0 4.140626 3.355469 7.5 7.5 7.5h10.066406v1.949219c0 3.832031-3.121094 6.949219-6.953125 6.949219h-6.230469c-3.832031 0-6.949219-3.117188-6.949219-6.949219v-28.902343c0-3.832032 3.117188-6.949219 6.949219-6.949219h6.230469c3.832031 0 6.953125 3.117187 6.953125 6.949219 0 4.144531 3.355469 7.5 7.5 7.5 4.140625 0 7.5-3.355469 7.5-7.5 0-12.101563-9.847656-21.949219-21.953125-21.949219h-6.230469c-12.105469 0-21.949219 9.847656-21.949219 21.949219v28.902343c0 12.101563 9.847657 21.949219 21.949219 21.949219h6.230469c12.105469 0 21.953125-9.847656 21.953125-21.949219zm-11.085937-1.949219h.007812zm-249.328126 16.398438v-57.800781c0-3.359375-2.238281-6.3125-5.476562-7.21875-3.238281-.910157-6.6875.453125-8.433594 3.324219l-11.15625 18.355468-11.15625-18.355468c-1.75-2.875-5.195312-4.234376-8.433594-3.324219-3.238281.90625-5.476562 3.855469-5.476562 7.21875v57.800781c0 4.144531 3.355469 7.5 7.5 7.5 4.140625 0 7.5-3.355469 7.5-7.5v-31.019531l3.65625 6.015625c1.359375 2.238281 3.789062 3.605468 6.410156 3.605468 2.617188 0 5.046875-1.367187 6.40625-3.605468l3.660156-6.015625v31.019531c0 4.144531 3.355469 7.5 7.5 7.5 4.140626 0 7.5-3.355469 7.5-7.5zm19.832032 0v-57.800781c0-4.140625-3.355469-7.5-7.5-7.5-4.140625 0-7.5 3.359375-7.5 7.5v57.800781c0 4.144531 3.359375 7.5 7.5 7.5 4.144531 0 7.5-3.355469 7.5-7.5zm130.765625 0v-57.800781c0-4.140625-3.355469-7.5-7.5-7.5s-7.5 3.359375-7.5 7.5v57.800781c0 4.144531 3.355469 7.5 7.5 7.5s7.5-3.355469 7.5-7.5zm49.488281 7.222656c3.238281-.90625 5.476562-3.859375 5.476562-7.222656v-57.800781c0-4.140625-3.355468-7.5-7.5-7.5-4.140624 0-7.5 3.359375-7.5 7.5v31.023437l-21.222656-34.917968c-1.75-2.871094-5.195312-4.234376-8.433594-3.324219-3.238281.90625-5.476562 3.859375-5.476562 7.222656v57.796875c0 4.144531 3.355469 7.5 7.5 7.5s7.5-3.355469 7.5-7.5v-31.019531l21.222656 34.914062c1.386719 2.277344 3.839844 3.605469 6.410156 3.605469.671876 0 1.351563-.089844 2.023438-.277344zm60.328125-100.023437c0-4.140625-3.359375-7.5-7.5-7.5h-295.546875c-4.140625 0-7.5 3.359375-7.5 7.5 0 4.144531 3.359375 7.5 7.5 7.5h295.546875c4.140625 0 7.5-3.355469 7.5-7.5zm0 0" fill="#607d8b"/><path d="m246.03125 477c-1.777344 0-3.410156-.621094-4.695312-1.65625 4.144531-1.546875 8.207031-3.273438 12.164062-5.179688-.339844 3.832032-3.550781 6.835938-7.46875 6.835938zm69.300781-57.800781h6.230469c3.832031 0 6.953125 3.117187 6.953125 6.949219 0 4.144531 3.355469 7.5 7.5 7.5 4.140625 0 7.5-3.355469 7.5-7.5 0-12.101563-9.847656-21.949219-21.953125-21.949219h-1c-2.9375 5.855469-6.261719 11.480469-9.933594 16.847656 1.238282-1.140625 2.886719-1.847656 4.703125-1.847656zm-34.167969 57.800781c.671876 0 1.351563-.089844 2.023438-.277344 3.238281-.90625 5.476562-3.859375 5.476562-7.222656v-23.148438c-6.410156 5.863282-13.347656 11.160157-20.734374 15.816407l6.824218 11.226562c1.386719 2.28125 3.839844 3.605469 6.410156 3.605469zm34.167969 0h6.230469c12.105469 0 21.953125-9.847656 21.953125-21.949219v-5.863281c0-6.113281-4.976563-11.085938-11.085937-11.085938h-13.980469c-4.144531 0-7.5 3.355469-7.5 7.5 0 4.140626 3.355469 7.5 7.5 7.5h10.066406v1.949219c0 3.832031-3.121094 6.949219-6.953125 6.949219h-6.230469c-3.832031 0-6.949219-3.117188-6.949219-6.949219v-28.902343c0-.925782.183594-1.8125.515626-2.625-4.667969 6.527343-9.859376 12.65625-15.515626 18.320312v13.207031c0 12.101563 9.84375 21.949219 21.949219 21.949219zm20.683594-107.800781h-3.1875c-1.082031 5.105469-2.429687 10.109375-4.027344 15h7.210938c4.144531 0 7.5-3.355469 7.5-7.5 0-4.140625-3.355469-7.5-7.496094-7.5zm0 0" fill="#455a64"/><path d="m375.984375 182.75c0-48.46875-19.253906-94.953125-53.527344-129.222656-34.269531-34.273438-80.753906-53.527344-129.222656-53.527344 41.804687 0 75.699219 33.890625 75.699219 75.699219v14.175781c0 9.484375 7.6875 17.175781 17.175781 17.175781h14.175781c41.808594 0 75.699219 33.890625 75.699219 75.699219zm0 0" fill="#cfd8dc"/></svg>